<?xml version="1.0" encoding="UTF-8"?>
<svg xmlns="http://www.w3.org/2000/svg" xmlns:xlink="http://www.w3.org/1999/xlink" width="39px" height="52px" viewBox="0 0 39 52" version="1.1">
<g id="surface1">
<path style=" stroke:none;fill-rule:nonzero;fill:rgb(4.313725%,18.039216%,24.313725%);fill-opacity:1;" d="M 38.941406 19.449219 C 38.941406 35.097656 19.5 51.972656 19.5 51.972656 C 19.5 51.972656 0.0585938 35.960938 0.0585938 19.449219 C 0.0585938 8.726562 8.761719 0.03125 19.5 0.03125 C 30.238281 0.03125 38.941406 8.726562 38.941406 19.449219 Z M 38.941406 19.449219 "/>
<path style=" stroke:none;fill-rule:nonzero;fill:rgb(100%,100%,100%);fill-opacity:1;" d="M 34.039062 19.449219 C 34.039062 27.464844 27.527344 33.96875 19.5 33.96875 C 11.472656 33.96875 4.960938 27.464844 4.960938 19.449219 C 4.960938 11.429688 11.472656 4.929688 19.5 4.929688 C 27.527344 4.929688 34.039062 11.429688 34.039062 19.449219 Z M 34.039062 19.449219 "/>
<path style=" stroke:none;fill-rule:nonzero;fill:rgb(94.117647%,50.196078%,17.254902%);fill-opacity:1;" d="M 27.292969 16.835938 L 23.53125 21.84375 C 23.402344 22.015625 23.199219 22.117188 22.984375 22.117188 C 22.769531 22.117188 22.566406 22.015625 22.4375 21.84375 L 18.675781 16.835938 C 18.523438 16.628906 18.496094 16.351562 18.613281 16.121094 C 18.730469 15.890625 18.964844 15.746094 19.222656 15.742188 L 26.746094 15.742188 C 27.003906 15.746094 27.242188 15.890625 27.359375 16.121094 C 27.472656 16.351562 27.449219 16.628906 27.292969 16.835938 "/>
<path style=" stroke:none;fill-rule:nonzero;fill:rgb(33.333333%,60%,67.058824%);fill-opacity:1;" d="M 10.722656 22.234375 L 14.484375 17.226562 C 14.613281 17.054688 14.816406 16.953125 15.03125 16.953125 C 15.246094 16.953125 15.449219 17.054688 15.578125 17.226562 L 19.335938 22.234375 C 19.492188 22.441406 19.519531 22.71875 19.402344 22.949219 C 19.285156 23.179688 19.050781 23.324219 18.789062 23.324219 L 11.269531 23.324219 C 11.011719 23.324219 10.773438 23.179688 10.65625 22.949219 C 10.542969 22.71875 10.566406 22.441406 10.722656 22.234375 "/>
<path style=" stroke:none;fill-rule:nonzero;fill:rgb(33.333333%,60%,67.058824%);fill-opacity:1;" d="M 17.136719 13.164062 C 17.136719 14.324219 16.195312 15.269531 15.03125 15.269531 C 13.867188 15.269531 12.925781 14.328125 12.925781 13.164062 C 12.925781 12.003906 13.867188 11.0625 15.03125 11.0625 C 16.191406 11.0625 17.136719 12.003906 17.136719 13.164062 "/>
<path style=" stroke:none;fill-rule:nonzero;fill:rgb(94.117647%,50.196078%,17.254902%);fill-opacity:1;" d="M 25.074219 25.898438 C 25.074219 27.058594 24.128906 28 22.964844 28 C 21.800781 28 20.859375 27.054688 20.859375 25.894531 C 20.863281 24.730469 21.808594 23.792969 22.96875 23.792969 C 24.132812 23.792969 25.078125 24.734375 25.074219 25.898438 "/>
</g>
</svg>
