<svg xmlns="http://www.w3.org/2000/svg" viewBox="0 0 512 512">
<defs>
<style>.cls-1{fill:#f0802b;}.cls-2{fill:#5499ab;}</style></defs>
    <path class="cls-1" d="M506.12,174.57,392.59,326a20.63,20.63,0,0,1-33,0L246,174.57a20.64,20.64,0,0,1,16.51-33H489.61a20.64,20.64,0,0,1,16.51,33"/>
    <path class="cls-2" d="M5.88,337.7,119.41,186.33a20.63,20.63,0,0,1,33,0L266,337.7a20.64,20.64,0,0,1-16.51,33H22.39a20.64,20.64,0,0,1-16.51-33"/>
    <path class="cls-2" d="M199.49,63.57A63.57,63.57,0,1,1,135.92,0a63.58,63.58,0,0,1,63.57,63.57"/>
    <path class="cls-1" d="M439.1,448.43a63.57,63.57,0,1,1-63.57-63.58,63.57,63.57,0,0,1,63.57,63.58"/>
</svg>