<svg id="Warstwa_1" data-name="Warstwa 1" xmlns="http://www.w3.org/2000/svg" viewBox="0 0 606.12 808.5"><defs><style>.cls-1{fill:#f0802c;}.cls-2{fill:#fff;}.cls-3{fill:#5599ab;}</style></defs><path class="cls-1" d="M605.18,302.29c0,243.53-302.12,506.12-302.12,506.12S.94,559.24.94,302.29C.94,135.44,136.2.18,303.06.18S605.18,135.44,605.18,302.29Z"/><circle class="cls-2" cx="303.06" cy="302.29" r="225.94"/><path class="cls-1" d="M424.18,261.66l-58.45,77.93a10.62,10.62,0,0,1-17,0l-58.45-77.93a10.63,10.63,0,0,1,8.5-17h116.9a10.63,10.63,0,0,1,8.5,17"/><path class="cls-3" d="M166.64,345.64l58.45-77.93a10.62,10.62,0,0,1,17,0l58.45,77.93a10.63,10.63,0,0,1-8.5,17H175.14a10.63,10.63,0,0,1-8.5-17"/><path class="cls-3" d="M266.32,204.51a32.73,32.73,0,1,1-32.73-32.72,32.73,32.73,0,0,1,32.73,32.72"/><path class="cls-1" d="M389.67,402.64A32.73,32.73,0,1,1,357,369.91a32.72,32.72,0,0,1,32.72,32.73"/></svg>