<?xml version="1.0" encoding="UTF-8"?>
<svg xmlns="http://www.w3.org/2000/svg" xmlns:xlink="http://www.w3.org/1999/xlink" width="18pt" height="24pt" viewBox="0 0 18 24" version="1.1">
<g id="surface1">
<path style=" stroke:none;fill-rule:nonzero;fill:rgb(94.117647%,50.196078%,17.254902%);fill-opacity:1;" d="M 17.972656 8.976562 C 17.972656 16.199219 9 23.988281 9 23.988281 C 9 23.988281 0.0273438 16.597656 0.0273438 8.976562 C 0.0273438 4.027344 4.042969 0.015625 9 0.015625 C 13.957031 0.015625 17.972656 4.027344 17.972656 8.976562 Z M 17.972656 8.976562 "/>
<path style=" stroke:none;fill-rule:nonzero;fill:rgb(100%,100%,100%);fill-opacity:1;" d="M 15.710938 8.976562 C 15.710938 12.675781 12.707031 15.675781 9 15.675781 C 5.292969 15.675781 2.289062 12.675781 2.289062 8.976562 C 2.289062 5.273438 5.292969 2.273438 9 2.273438 C 12.707031 2.273438 15.710938 5.273438 15.710938 8.976562 Z M 15.710938 8.976562 "/>
<path style=" stroke:none;fill-rule:nonzero;fill:rgb(94.117647%,50.196078%,17.254902%);fill-opacity:1;" d="M 12.597656 7.769531 L 10.859375 10.082031 C 10.800781 10.160156 10.707031 10.207031 10.609375 10.207031 C 10.507812 10.207031 10.414062 10.160156 10.355469 10.082031 L 8.621094 7.769531 C 8.550781 7.675781 8.539062 7.546875 8.589844 7.441406 C 8.644531 7.335938 8.753906 7.265625 8.871094 7.265625 L 12.34375 7.265625 C 12.464844 7.265625 12.574219 7.335938 12.625 7.441406 C 12.679688 7.546875 12.667969 7.675781 12.597656 7.769531 "/>
<path style=" stroke:none;fill-rule:nonzero;fill:rgb(33.333333%,60%,67.058824%);fill-opacity:1;" d="M 4.949219 10.261719 L 6.683594 7.949219 C 6.742188 7.871094 6.835938 7.824219 6.9375 7.824219 C 7.035156 7.824219 7.128906 7.871094 7.1875 7.949219 L 8.925781 10.261719 C 8.996094 10.355469 9.007812 10.484375 8.953125 10.589844 C 8.902344 10.699219 8.792969 10.765625 8.671875 10.765625 L 5.199219 10.765625 C 5.082031 10.765625 4.972656 10.699219 4.917969 10.589844 C 4.867188 10.484375 4.878906 10.355469 4.949219 10.261719 "/>
<path style=" stroke:none;fill-rule:nonzero;fill:rgb(33.333333%,60%,67.058824%);fill-opacity:1;" d="M 7.910156 6.074219 C 7.910156 6.613281 7.472656 7.046875 6.9375 7.046875 C 6.398438 7.046875 5.964844 6.613281 5.964844 6.074219 C 5.964844 5.539062 6.398438 5.105469 6.9375 5.105469 C 7.472656 5.105469 7.910156 5.539062 7.910156 6.074219 "/>
<path style=" stroke:none;fill-rule:nonzero;fill:rgb(94.117647%,50.196078%,17.254902%);fill-opacity:1;" d="M 11.570312 11.953125 C 11.570312 12.488281 11.136719 12.921875 10.597656 12.921875 C 10.0625 12.921875 9.628906 12.488281 9.628906 11.949219 C 9.628906 11.414062 10.066406 10.980469 10.601562 10.980469 C 11.136719 10.980469 11.574219 11.417969 11.574219 11.953125 "/>
</g>
</svg>
