<?xml version="1.0" encoding="UTF-8"?>
<svg xmlns="http://www.w3.org/2000/svg" xmlns:xlink="http://www.w3.org/1999/xlink" width="35pt" height="46pt" viewBox="0 0 35 46" version="1.1">
<g id="surface1">
<path style=" stroke:none;fill-rule:nonzero;fill:rgb(33.333333%,60%,67.058824%);fill-opacity:1;" d="M 34.945312 17.230469 C 34.945312 31.09375 17.5 46.046875 17.5 46.046875 C 17.5 46.046875 0.0546875 31.859375 0.0546875 17.230469 C 0.0546875 7.730469 7.867188 0.0273438 17.5 0.0273438 C 27.132812 0.0273438 34.945312 7.730469 34.945312 17.230469 Z M 34.945312 17.230469 "/>
<path style=" stroke:none;fill-rule:nonzero;fill:rgb(100%,100%,100%);fill-opacity:1;" d="M 30.546875 17.230469 C 30.546875 24.332031 24.707031 30.09375 17.5 30.09375 C 10.292969 30.09375 4.453125 24.332031 4.453125 17.230469 C 4.453125 10.125 10.292969 4.367188 17.5 4.367188 C 24.707031 4.367188 30.546875 10.125 30.546875 17.230469 Z M 30.546875 17.230469 "/>
<path style=" stroke:none;fill-rule:nonzero;fill:rgb(94.117647%,50.196078%,17.254902%);fill-opacity:1;" d="M 24.496094 14.917969 L 21.117188 19.351562 C 21.003906 19.503906 20.820312 19.59375 20.628906 19.59375 C 20.433594 19.59375 20.253906 19.503906 20.136719 19.351562 L 16.761719 14.917969 C 16.621094 14.734375 16.601562 14.488281 16.703125 14.28125 C 16.808594 14.078125 17.019531 13.949219 17.253906 13.949219 L 24.003906 13.949219 C 24.234375 13.949219 24.449219 14.078125 24.550781 14.28125 C 24.65625 14.488281 24.632812 14.734375 24.496094 14.917969 "/>
<path style=" stroke:none;fill-rule:nonzero;fill:rgb(33.333333%,60%,67.058824%);fill-opacity:1;" d="M 9.621094 19.699219 L 12.996094 15.261719 C 13.113281 15.109375 13.296875 15.019531 13.488281 15.019531 C 13.679688 15.019531 13.863281 15.109375 13.980469 15.261719 L 17.355469 19.699219 C 17.492188 19.878906 17.515625 20.125 17.414062 20.332031 C 17.308594 20.535156 17.09375 20.664062 16.863281 20.664062 L 10.113281 20.664062 C 9.878906 20.664062 9.667969 20.535156 9.566406 20.332031 C 9.460938 20.125 9.484375 19.878906 9.621094 19.699219 "/>
<path style=" stroke:none;fill-rule:nonzero;fill:rgb(33.333333%,60%,67.058824%);fill-opacity:1;" d="M 15.378906 11.660156 C 15.378906 12.691406 14.535156 13.527344 13.488281 13.527344 C 12.445312 13.527344 11.597656 12.691406 11.597656 11.664062 C 11.597656 10.632812 12.445312 9.800781 13.488281 9.800781 C 14.53125 9.800781 15.378906 10.632812 15.378906 11.660156 "/>
<path style=" stroke:none;fill-rule:nonzero;fill:rgb(94.117647%,50.196078%,17.254902%);fill-opacity:1;" d="M 22.5 22.941406 C 22.5 23.972656 21.65625 24.808594 20.609375 24.804688 C 19.566406 24.804688 18.71875 23.972656 18.722656 22.941406 C 18.722656 21.910156 19.570312 21.078125 20.613281 21.078125 C 21.660156 21.078125 22.503906 21.914062 22.503906 22.941406 "/>
</g>
</svg>
