<?xml version="1.0" encoding="UTF-8"?>
<svg xmlns="http://www.w3.org/2000/svg" xmlns:xlink="http://www.w3.org/1999/xlink" width="100pt" height="133pt" viewBox="0 0 100 133" version="1.1">
<g id="surface1">
<path style=" stroke:none;fill-rule:nonzero;fill:rgb(33.333333%,60%,67.058824%);fill-opacity:1;" d="M 99.84375 49.742188 C 99.84375 89.769531 50 132.929688 50 132.929688 C 50 132.929688 0.15625 91.976562 0.15625 49.742188 C 0.15625 22.316406 22.472656 0.0820312 50 0.0820312 C 77.527344 0.0820312 99.84375 22.316406 99.84375 49.742188 Z M 99.84375 49.742188 "/>
<path style=" stroke:none;fill-rule:nonzero;fill:rgb(100%,100%,100%);fill-opacity:1;" d="M 87.277344 49.742188 C 87.277344 70.25 70.585938 86.878906 50 86.878906 C 29.414062 86.878906 12.722656 70.25 12.722656 49.742188 C 12.722656 29.230469 29.414062 12.605469 50 12.605469 C 70.585938 12.605469 87.277344 29.230469 87.277344 49.742188 Z M 87.277344 49.742188 "/>
<path style=" stroke:none;fill-rule:nonzero;fill:rgb(94.117647%,50.196078%,17.254902%);fill-opacity:1;" d="M 69.984375 43.0625 L 60.339844 55.871094 C 60.007812 56.3125 59.488281 56.570312 58.9375 56.570312 C 58.386719 56.570312 57.867188 56.3125 57.535156 55.871094 L 47.890625 43.0625 C 47.492188 42.535156 47.429688 41.824219 47.726562 41.234375 C 48.023438 40.644531 48.628906 40.269531 49.292969 40.269531 L 68.582031 40.269531 C 69.246094 40.269531 69.851562 40.644531 70.148438 41.234375 C 70.445312 41.824219 70.378906 42.535156 69.984375 43.0625 "/>
<path style=" stroke:none;fill-rule:nonzero;fill:rgb(33.333333%,60%,67.058824%);fill-opacity:1;" d="M 27.492188 56.867188 L 37.136719 44.058594 C 37.46875 43.617188 37.988281 43.359375 38.539062 43.359375 C 39.089844 43.359375 39.609375 43.617188 39.941406 44.058594 L 49.585938 56.867188 C 49.980469 57.394531 50.046875 58.101562 49.75 58.695312 C 49.453125 59.285156 48.84375 59.660156 48.183594 59.660156 L 28.894531 59.660156 C 28.230469 59.660156 27.625 59.285156 27.328125 58.695312 C 27.03125 58.101562 27.09375 57.394531 27.492188 56.867188 "/>
<path style=" stroke:none;fill-rule:nonzero;fill:rgb(33.333333%,60%,67.058824%);fill-opacity:1;" d="M 43.9375 33.667969 C 43.9375 36.640625 41.523438 39.050781 38.539062 39.050781 C 35.558594 39.050781 33.140625 36.644531 33.136719 33.671875 C 33.136719 30.699219 35.554688 28.292969 38.539062 28.292969 C 41.519531 28.292969 43.9375 30.699219 43.9375 33.667969 "/>
<path style=" stroke:none;fill-rule:nonzero;fill:rgb(94.117647%,50.196078%,17.254902%);fill-opacity:1;" d="M 64.289062 66.234375 C 64.289062 69.207031 61.871094 71.617188 58.886719 71.613281 C 55.902344 71.613281 53.484375 69.203125 53.488281 66.230469 C 53.492188 63.257812 55.914062 60.851562 58.898438 60.855469 C 61.882812 60.855469 64.296875 63.265625 64.296875 66.234375 "/>
</g>
</svg>
