
        <svg xmlns="http://www.w3.org/2000/svg" xmlns:xlink="http://www.w3.org/1999/xlink" version="1.1" width="2469.9716095217295" height="3131.0329766324526" viewBox="0 0 2469.9716095217295 3131.0329766324526">
			
			<g transform="scale(6.551648831622624) translate(10, 10)">
				<defs id="SvgjsDefs1081"><linearGradient id="SvgjsLinearGradient1090"><stop id="SvgjsStop1091" stop-color="#8f5e25" offset="0"/><stop id="SvgjsStop1092" stop-color="#fbf4a1" offset="0.5"/><stop id="SvgjsStop1093" stop-color="#8f5e25" offset="1"/></linearGradient><linearGradient id="SvgjsLinearGradient1094"><stop id="SvgjsStop1095" stop-color="#8f5e25" offset="0"/><stop id="SvgjsStop1096" stop-color="#fbf4a1" offset="0.5"/><stop id="SvgjsStop1097" stop-color="#8f5e25" offset="1"/></linearGradient><linearGradient id="SvgjsLinearGradient1098"><stop id="SvgjsStop1099" stop-color="#8f5e25" offset="0"/><stop id="SvgjsStop1100" stop-color="#fbf4a1" offset="0.5"/><stop id="SvgjsStop1101" stop-color="#8f5e25" offset="1"/></linearGradient><linearGradient id="SvgjsLinearGradient1102"><stop id="SvgjsStop1103" stop-color="#8f5e25" offset="0"/><stop id="SvgjsStop1104" stop-color="#fbf4a1" offset="0.5"/><stop id="SvgjsStop1105" stop-color="#8f5e25" offset="1"/></linearGradient></defs><g id="SvgjsG1082" featureKey="rootContainer" transform="matrix(1.05,0,0,1.05,-5.25,19)" fill="#000"><path xmlns="http://www.w3.org/2000/svg" fill-rule="evenodd" d="M5,65 L175,0 L345, 65 L175, 10 z M5,338 L175,418 L345,333 L175, 408 z"/></g><g id="SvgjsG1083" featureKey="symbolFeature-0" transform="matrix(1.9774010447097587,0,0,1.9774010447097587,107.61582106020992,78.6836165117332)" fill="#000"><g xmlns="http://www.w3.org/2000/svg"><g><path d="M22.4,46.1c0-0.9-1-1.8-2.7-2.5c-0.3-0.1-0.5-0.3-0.6-0.5c-3.7-5.4-4.4-12.8-4.5-16.8    c0-0.5,0.2-1.1,0.6-1.4c1.3-1.2,2.1-2.9,1.9-4.9c-0.3-2.5-2.4-4.6-4.9-4.9c-3.4-0.4-6.2,2.3-6.2,5.6c0,1.7,0.7,3.2,1.9,4.2    c0.4,0.4,0.6,0.9,0.6,1.4c-0.1,4-0.8,11.3-4.5,16.7c-0.2,0.2-0.4,0.4-0.6,0.5c-1.7,0.7-2.7,1.5-2.7,2.5c0,0.7,0.5,1.3,1.4,1.9    c0.4,0.2,0.7,0.7,0.7,1.1v1.2c0,0.7,0.6,1.3,1.3,1.3h15c0.7,0,1.3-0.6,1.3-1.3v-1.2c0-0.5,0.3-0.9,0.7-1.1    C21.9,47.4,22.4,46.8,22.4,46.1z"/><path d="M71.5,46.1c0-0.9-1-1.8-2.7-2.5c-0.3-0.1-0.5-0.3-0.6-0.5c-3.7-5.4-4.4-12.8-4.5-16.8    c0-0.5,0.2-1.1,0.6-1.4c1.3-1.2,2.1-2.9,1.9-4.9c-0.3-2.5-2.4-4.6-4.9-4.9c-3.4-0.4-6.2,2.3-6.2,5.6c0,1.7,0.7,3.2,1.9,4.2    c0.4,0.4,0.6,0.9,0.6,1.4c-0.1,4-0.8,11.3-4.5,16.7c-0.2,0.2-0.4,0.4-0.6,0.5c-1.7,0.7-2.7,1.5-2.7,2.5c0,0.7,0.5,1.3,1.4,1.9    c0.4,0.2,0.7,0.7,0.7,1.1v1.2c0,0.7,0.6,1.3,1.3,1.3h15c0.7,0,1.3-0.6,1.3-1.3v-1.2c0-0.5,0.3-0.9,0.7-1.1    C71,47.4,71.5,46.8,71.5,46.1z"/></g><path d="M48.7,55.9c-0.4-0.2-0.7-0.4-1-0.8c-4.9-7.1-6.4-16.5-6.8-22.8c0-0.3,0.2-0.5,0.5-0.5h2.7   c0.5,0,0.9-0.4,0.9-0.9v-2.1c0-0.5-0.4-0.9-0.9-0.9h0l3.2-12.3c0.1-0.3-0.1-0.6-0.4-0.6h-8.1c-0.3,0-0.5-0.2-0.5-0.5v-2.1   c0-0.3,0.2-0.5,0.5-0.5h2.6c0.3,0,0.5-0.2,0.5-0.5V7.8c0-0.3-0.2-0.5-0.5-0.5h-2.6c-0.3,0-0.5-0.2-0.5-0.5V4.2   c0-0.3-0.2-0.5-0.5-0.5h-3.7c-0.3,0-0.5,0.2-0.5,0.5v2.6c0,0.3-0.2,0.5-0.5,0.5h-2.6c-0.3,0-0.5,0.2-0.5,0.5v3.7   c0,0.3,0.2,0.5,0.5,0.5h2.6c0.3,0,0.5,0.2,0.5,0.5v2.1c0,0.3-0.2,0.5-0.5,0.5h-8.1c-0.3,0-0.5,0.3-0.4,0.6l3.2,12.3h0   c-0.5,0-0.9,0.4-0.9,0.9v2.1c0,0.5,0.4,0.9,0.9,0.9h2.7c0.3,0,0.5,0.2,0.5,0.5c-0.4,6.4-1.9,15.7-6.8,22.8c-0.2,0.3-0.6,0.6-1,0.8   c-2.6,1-4.2,2.3-4.2,3.8c0,1,0.8,2,2.2,2.8c0.6,0.4,1,1,1,1.8v1.9c0,1.1,0.9,2,2,2h23.1c1.1,0,2-0.9,2-2v-1.9c0-0.7,0.4-1.4,1-1.8   c1.4-0.8,2.2-1.8,2.2-2.8C52.8,58.2,51.3,56.9,48.7,55.9z"/></g></g><g id="SvgjsG1084" featureKey="nameFeature-0" transform="matrix(1.8561729752265614,0,0,1.8561729752265614,0.2876536070007538,221.12261616840794)" fill="#000"><path d="M12.68 40.24 c-1.92 0 -3.84 -0.36 -5.68 -1.08 c-1.84 -0.68 -3.48 -1.68 -4.84 -2.88 c-0.16 -0.16 -0.2 -0.4 -0.12 -0.6 l1.4 -4.76 c0.08 -0.16 0.2 -0.28 0.36 -0.28 c0.16 -0.04 0.32 0 0.44 0.12 c2.12 2 4.52 3.8 7.52 3.96 c0.8 0.04 1.68 0.08 2.44 -0.16 c2.36 -0.76 1.36 -3.16 -0.4 -3.88 c-0.6 -0.24 -1.44 -0.52 -2.52 -0.84 c-1.6 -0.44 -2.92 -0.92 -3.92 -1.4 c-1.08 -0.48 -2 -1.24 -2.8 -2.24 c-0.76 -1.04 -1.16 -2.4 -1.16 -4.04 c0 -1.56 0.4 -2.92 1.2 -4.08 s1.92 -2.08 3.32 -2.68 s3.04 -0.92 4.88 -0.92 c1.64 0 3.24 0.24 4.84 0.76 c1.56 0.48 2.96 1.16 4.2 1.96 c0.2 0.16 0.28 0.4 0.16 0.64 l-1.32 4.48 c-0.04 0.16 -0.16 0.24 -0.32 0.28 c-0.12 0.04 -0.28 0.04 -0.4 -0.04 c-1.8 -1.12 -3.6 -2.48 -5.72 -2.76 c-1.4 -0.2 -3.52 -0.12 -4 1.56 c-0.6 2.16 2.56 2.72 4 3.16 c1.6 0.48 2.92 0.96 3.96 1.44 c1.08 0.52 2.04 1.32 2.8 2.32 c0.8 1.04 1.2 2.44 1.2 4.12 c0 1.64 -0.44 3.04 -1.28 4.24 c-0.8 1.2 -1.96 2.08 -3.4 2.72 c-1.44 0.56 -3.04 0.88 -4.84 0.88 z M26.72 40 c-0.28 0 -0.52 -0.24 -0.52 -0.52 l0 -23.96 c0 -0.28 0.24 -0.52 0.52 -0.52 l5.2 0 c0.28 0 0.52 0.24 0.52 0.52 l0 9.84 l9.04 0 l0 -9.84 c0 -0.28 0.24 -0.52 0.52 -0.52 l5.2 0 c0.28 0 0.52 0.24 0.52 0.52 l0 23.96 c0 0.28 -0.24 0.52 -0.52 0.52 l-5.2 0 c-0.28 0 -0.52 -0.24 -0.52 -0.52 l0 -8.6 l-9.04 0 l0 8.6 c0 0.28 -0.24 0.52 -0.52 0.52 l-5.2 0 z M51.72 40 l0 -23.96 c0 -1 0.2 -1.2 0.52 -1.2 l17.52 0 c0.28 0 0.52 0.2 0.52 0.48 l0 4.52 c0 0.28 -0.24 0.52 -0.52 0.52 l-11.84 0 l0 4.16 l7.48 0 c0.28 0 0.52 0.24 0.52 0.52 l0 4.48 c0 0.28 -0.24 0.52 -0.52 0.52 l-7.48 0 l0 4.28 l11.8 0 c0.28 0 0.52 0.24 0.52 0.52 l0 4.48 c0 0.28 -0.24 0.52 -0.52 0.52 l-17.48 0 c-0.32 0 -0.52 -0.24 -0.52 0.16 z M74.8 40 c-0.28 0 -0.52 -0.24 -0.52 -0.52 l0 -23.96 c0 -0.28 0.24 -0.52 0.52 -0.52 l16.52 0 c0.16 0 0.28 0.04 0.36 0.16 c0.12 0.08 0.16 0.2 0.16 0.36 l-0.04 4.48 c0 0.28 -0.24 0.52 -0.52 0.52 l-10.8 0 l0 4.84 l6.8 0 c0.28 0 0.52 0.24 0.52 0.52 l0 4.52 c0 0.28 -0.24 0.52 -0.52 0.52 l-6.8 0 l0 8.56 c0 0.28 -0.2 0.52 -0.48 0.52 l-5.2 0 z M95.56 40 c-0.28 0 -0.52 -0.24 -0.52 -0.52 l0 -23.96 c0 -0.28 0.24 -0.52 0.52 -0.52 l16.52 0 c0.16 0 0.28 0.04 0.36 0.16 c0.12 0.08 0.16 0.2 0.16 0.36 l-0.04 4.48 c0 0.28 -0.24 0.52 -0.52 0.52 l-10.8 0 l0 4.84 l6.8 0 c0.28 0 0.52 0.24 0.52 0.52 l0 4.52 c0 0.28 -0.24 0.52 -0.52 0.52 l-6.8 0 l0 8.56 c0 0.28 -0.2 0.52 -0.48 0.52 l-5.2 0 z M116.32000000000001 40 c-0.28 0 -0.52 -0.24 -0.52 -0.52 l0 -23.96 c0 -0.28 0.24 -0.52 0.52 -0.52 l5.2 0 c0.28 0 0.52 0.24 0.52 0.52 l0 23.96 c0 0.28 -0.24 0.52 -0.52 0.52 l-5.2 0 z M126.04 40 l0 -23.96 c0 -1 0.2 -1.2 0.52 -1.2 l17.52 0 c0.28 0 0.52 0.2 0.52 0.48 l0 4.52 c0 0.28 -0.24 0.52 -0.52 0.52 l-11.84 0 l0 4.16 l7.48 0 c0.28 0 0.52 0.24 0.52 0.52 l0 4.48 c0 0.28 -0.24 0.52 -0.52 0.52 l-7.48 0 l0 4.28 l11.8 0 c0.28 0 0.52 0.24 0.52 0.52 l0 4.48 c0 0.28 -0.24 0.52 -0.52 0.52 l-17.48 0 c-0.32 0 -0.52 -0.24 -0.52 0.16 z M149.12 40 c-0.28 0 -0.52 -0.24 -0.52 -0.52 l0 -23.96 c0 -0.28 0.24 -0.52 0.52 -0.52 l5.2 0 c0.28 0 0.52 0.24 0.52 0.52 l0 18.72 l9 0 c0.28 0 0.52 0.24 0.52 0.52 l0 4.72 c0 0.28 -0.24 0.52 -0.52 0.52 l-14.72 0 z M168.88 40 c-0.32 0 -0.52 -0.24 -0.52 -0.52 l0 -23.96 c0 -0.28 0.2 -0.52 0.52 -0.52 l9.08 0 c2.4 0 4.6 0.52 6.52 1.6 c1.92 1.04 3.4 2.52 4.48 4.44 c1.04 1.88 1.6 4.04 1.6 6.44 c0 2.44 -0.56 4.6 -1.64 6.48 c-1.08 1.92 -2.6 3.4 -4.56 4.44 c-1.92 1.08 -4.16 1.6 -6.6 1.6 l-8.88 0 z M174.55999999999997 34.4 l3.52 0 c1.16 0 2.24 -0.28 3.16 -0.84 c0.92 -0.6 1.68 -1.4 2.2 -2.44 s0.8 -2.24 0.8 -3.6 c0 -1.32 -0.28 -2.56 -0.84 -3.6 c-0.56 -1.08 -1.32 -1.88 -2.28 -2.48 c-0.96 -0.56 -2.08 -0.88 -3.28 -0.88 l-3.28 0 l0 13.84 z"/></g><g id="SvgjsG1085" featureKey="sloganFeature-0" transform="matrix(1.7017709098044949,0,0,1.7017709098044949,37.298229191628955,303.8833929398794)" fill="#000"><path d="M7.3 20 c-1.18 0 -2.26 -0.28 -3.22 -0.84 c-0.96 -0.58 -1.72 -1.36 -2.26 -2.34 s-0.82 -2.08 -0.82 -3.3 c0 -1.18 0.28 -2.28 0.84 -3.26 c0.56 -0.96 1.34 -1.74 2.3 -2.3 c0.98 -0.56 2.08 -0.84 3.24 -0.84 c0.88 0 1.74 0.2 2.58 0.56 c0.84 0.38 1.56 0.88 2.16 1.52 c0.08 0.1 0.08 0.24 0 0.34 l-1.9 1.56 c-0.06 0.06 -0.12 0.1 -0.2 0.1 s-0.16 -0.04 -0.2 -0.1 c-1.02 -1.24 -2.66 -1.5 -4.04 -0.64 c-1.2 0.74 -1.64 2.1 -1.58 3.46 c0.06 1.38 1.06 2.56 2.38 2.96 c1.2 0.36 2.38 0.08 3.24 -0.84 c0.06 -0.04 0.12 -0.08 0.2 -0.06 c0.08 0 0.14 0.02 0.18 0.08 l1.94 1.36 c0.08 0.1 0.08 0.24 0 0.34 c-0.64 0.68 -1.4 1.24 -2.24 1.64 c-0.86 0.4 -1.74 0.6 -2.6 0.6 z M17.0395 20 c-0.14 0 -0.26 -0.12 -0.26 -0.26 l0 -11.98 c0 -0.14 0.12 -0.26 0.26 -0.26 l2.6 0 c0.14 0 0.26 0.12 0.26 0.26 l0 4.92 l4.52 0 l0 -4.92 c0 -0.14 0.12 -0.26 0.26 -0.26 l2.6 0 c0.14 0 0.26 0.12 0.26 0.26 l0 11.98 c0 0.14 -0.12 0.26 -0.26 0.26 l-2.6 0 c-0.14 0 -0.26 -0.12 -0.26 -0.26 l0 -4.3 l-4.52 0 l0 4.3 c0 0.14 -0.12 0.26 -0.26 0.26 l-2.6 0 z M32.119 20 l0 -11.98 c0 -0.5 0.1 -0.6 0.26 -0.6 l8.76 0 c0.14 0 0.26 0.1 0.26 0.24 l0 2.26 c0 0.14 -0.12 0.26 -0.26 0.26 l-5.92 0 l0 2.08 l3.74 0 c0.14 0 0.26 0.12 0.26 0.26 l0 2.24 c0 0.14 -0.12 0.26 -0.26 0.26 l-3.74 0 l0 2.14 l5.9 0 c0.14 0 0.26 0.12 0.26 0.26 l0 2.24 c0 0.14 -0.12 0.26 -0.26 0.26 l-8.74 0 c-0.16 0 -0.26 -0.12 -0.26 0.08 z M51.3185 20.12 c-0.96 0 -1.92 -0.18 -2.84 -0.54 c-0.92 -0.34 -1.74 -0.84 -2.42 -1.44 c-0.08 -0.08 -0.1 -0.2 -0.06 -0.3 l0.7 -2.38 c0.04 -0.08 0.1 -0.14 0.18 -0.14 c0.08 -0.02 0.16 0 0.22 0.06 c1.06 1 2.26 1.9 3.76 1.98 c0.4 0.02 0.84 0.04 1.22 -0.08 c1.18 -0.38 0.68 -1.58 -0.2 -1.94 c-0.3 -0.12 -0.72 -0.26 -1.26 -0.42 c-0.8 -0.22 -1.46 -0.46 -1.96 -0.7 c-0.54 -0.24 -1 -0.62 -1.4 -1.12 c-0.38 -0.52 -0.58 -1.2 -0.58 -2.02 c0 -0.78 0.2 -1.46 0.6 -2.04 s0.96 -1.04 1.66 -1.34 s1.52 -0.46 2.44 -0.46 c0.82 0 1.62 0.12 2.42 0.38 c0.78 0.24 1.48 0.58 2.1 0.98 c0.1 0.08 0.14 0.2 0.08 0.32 l-0.66 2.24 c-0.02 0.08 -0.08 0.12 -0.16 0.14 c-0.06 0.02 -0.14 0.02 -0.2 -0.02 c-0.9 -0.56 -1.8 -1.24 -2.86 -1.38 c-0.7 -0.1 -1.76 -0.06 -2 0.78 c-0.3 1.08 1.28 1.36 2 1.58 c0.8 0.24 1.46 0.48 1.98 0.72 c0.54 0.26 1.02 0.66 1.4 1.16 c0.4 0.52 0.6 1.22 0.6 2.06 c0 0.82 -0.22 1.52 -0.64 2.12 c-0.4 0.6 -0.98 1.04 -1.7 1.36 c-0.72 0.28 -1.52 0.44 -2.42 0.44 z M65.99799999999999 20.12 c-0.96 0 -1.92 -0.18 -2.84 -0.54 c-0.92 -0.34 -1.74 -0.84 -2.42 -1.44 c-0.08 -0.08 -0.1 -0.2 -0.06 -0.3 l0.7 -2.38 c0.04 -0.08 0.1 -0.14 0.18 -0.14 c0.08 -0.02 0.16 0 0.22 0.06 c1.06 1 2.26 1.9 3.76 1.98 c0.4 0.02 0.84 0.04 1.22 -0.08 c1.18 -0.38 0.68 -1.58 -0.2 -1.94 c-0.3 -0.12 -0.72 -0.26 -1.26 -0.42 c-0.8 -0.22 -1.46 -0.46 -1.96 -0.7 c-0.54 -0.24 -1 -0.62 -1.4 -1.12 c-0.38 -0.52 -0.58 -1.2 -0.58 -2.02 c0 -0.78 0.2 -1.46 0.6 -2.04 s0.96 -1.04 1.66 -1.34 s1.52 -0.46 2.44 -0.46 c0.82 0 1.62 0.12 2.42 0.38 c0.78 0.24 1.48 0.58 2.1 0.98 c0.1 0.08 0.14 0.2 0.08 0.32 l-0.66 2.24 c-0.02 0.08 -0.08 0.12 -0.16 0.14 c-0.06 0.02 -0.14 0.02 -0.2 -0.02 c-0.9 -0.56 -1.8 -1.24 -2.86 -1.38 c-0.7 -0.1 -1.76 -0.06 -2 0.78 c-0.3 1.08 1.28 1.36 2 1.58 c0.8 0.24 1.46 0.48 1.98 0.72 c0.54 0.26 1.02 0.66 1.4 1.16 c0.4 0.52 0.6 1.22 0.6 2.06 c0 0.82 -0.22 1.52 -0.64 2.12 c-0.4 0.6 -0.98 1.04 -1.7 1.36 c-0.72 0.28 -1.52 0.44 -2.42 0.44 z M89.61699999999999 20 c-1.18 0 -2.26 -0.28 -3.22 -0.84 c-0.96 -0.58 -1.72 -1.36 -2.26 -2.34 s-0.82 -2.08 -0.82 -3.3 c0 -1.18 0.28 -2.28 0.84 -3.26 c0.56 -0.96 1.34 -1.74 2.3 -2.3 c0.98 -0.56 2.08 -0.84 3.24 -0.84 c0.88 0 1.74 0.2 2.58 0.56 c0.84 0.38 1.56 0.88 2.16 1.52 c0.08 0.1 0.08 0.24 0 0.34 l-1.9 1.56 c-0.06 0.06 -0.12 0.1 -0.2 0.1 s-0.16 -0.04 -0.2 -0.1 c-1.02 -1.24 -2.66 -1.5 -4.04 -0.64 c-1.2 0.74 -1.64 2.1 -1.58 3.46 c0.06 1.38 1.06 2.56 2.38 2.96 c1.2 0.36 2.38 0.08 3.24 -0.84 c0.06 -0.04 0.12 -0.08 0.2 -0.06 c0.08 0 0.14 0.02 0.18 0.08 l1.94 1.36 c0.08 0.1 0.08 0.24 0 0.34 c-0.64 0.68 -1.4 1.24 -2.24 1.64 c-0.86 0.4 -1.74 0.6 -2.6 0.6 z M99.09649999999999 20 l0 -11.98 c0 -0.5 0.1 -0.6 0.26 -0.6 l8.76 0 c0.14 0 0.26 0.1 0.26 0.24 l0 2.26 c0 0.14 -0.12 0.26 -0.26 0.26 l-5.92 0 l0 2.08 l3.74 0 c0.14 0 0.26 0.12 0.26 0.26 l0 2.24 c0 0.14 -0.12 0.26 -0.26 0.26 l-3.74 0 l0 2.14 l5.9 0 c0.14 0 0.26 0.12 0.26 0.26 l0 2.24 c0 0.14 -0.12 0.26 -0.26 0.26 l-8.74 0 c-0.16 0 -0.26 -0.12 -0.26 0.08 z M113.216 20 c-0.14 0 -0.26 -0.12 -0.26 -0.26 l0 -11.98 c0 -0.14 0.12 -0.26 0.26 -0.26 l2.36 0 c0.08 0 0.16 0.04 0.22 0.1 l4.6 7.1 l0 -6.94 c0 -0.14 0.12 -0.26 0.26 -0.26 l2.46 0 c0.14 0 0.26 0.12 0.26 0.26 l0 11.98 c0 0.14 -0.12 0.26 -0.26 0.26 l-2.36 0 c-0.08 0 -0.16 -0.04 -0.22 -0.1 l-4.58 -7.06 l0 6.9 c0 0.14 -0.12 0.26 -0.26 0.26 l-2.48 0 z M131.19549999999998 20 c-0.14 0 -0.24 -0.12 -0.24 -0.26 l0 -9.44 l-2.74 0 c-0.14 0 -0.26 -0.1 -0.26 -0.24 l0 -2.3 c0 -0.14 0.12 -0.26 0.26 -0.26 l8.58 0 c0.16 0 0.26 0.12 0.26 0.26 l0 2.3 c0 0.14 -0.1 0.24 -0.26 0.24 l-2.74 0 l0 9.44 c0 0.14 -0.12 0.26 -0.26 0.26 l-2.6 0 z M141.89499999999998 20 c-0.16 0 -0.26 -0.12 -0.26 -0.26 l0 -11.98 c0 -0.14 0.1 -0.26 0.26 -0.26 l4.88 0 c1.52 0 2.72 0.38 3.56 1.16 c1.24 1.12 1.66 3.24 1.06 4.8 c-0.22 0.56 -0.6 1.08 -1.08 1.46 c-0.28 0.22 -0.58 0.38 -0.88 0.54 c0.86 1.36 2.16 4.12 2.16 4.12 c0.02 0.04 0.06 0.1 0.06 0.16 c0 0.14 -0.12 0.26 -0.26 0.26 l-2.96 0 c-0.08 0 -0.18 -0.06 -0.22 -0.14 l-1.74 -3.82 c-0.62 0.04 -1.1 0.02 -1.74 0.02 l0 3.68 c0 0.14 -0.12 0.26 -0.26 0.26 l-2.58 0 z M144.73499999999999 13.280000000000001 c0 0 2.52 0.28 3.4 -0.3 c0.34 -0.22 0.54 -0.76 0.54 -1.16 c-0.02 -0.44 -0.24 -0.9 -0.6 -1.18 c-0.38 -0.32 -1.32 -0.42 -1.8 -0.42 l-1.54 0.04 l0 3.02 z M156.25449999999998 20 l0 -11.98 c0 -0.5 0.1 -0.6 0.26 -0.6 l8.76 0 c0.14 0 0.26 0.1 0.26 0.24 l0 2.26 c0 0.14 -0.12 0.26 -0.26 0.26 l-5.92 0 l0 2.08 l3.74 0 c0.14 0 0.26 0.12 0.26 0.26 l0 2.24 c0 0.14 -0.12 0.26 -0.26 0.26 l-3.74 0 l0 2.14 l5.9 0 c0.14 0 0.26 0.12 0.26 0.26 l0 2.24 c0 0.14 -0.12 0.26 -0.26 0.26 l-8.74 0 c-0.16 0 -0.26 -0.12 -0.26 0.08 z"/></g>
			</g>
		</svg>
	